<?xml version="1.0" encoding="UTF-8"?>
<svg width="250px" height="250px" viewBox="0 0 250 250" version="1.1" xmlns="http://www.w3.org/2000/svg" xmlns:xlink="http://www.w3.org/1999/xlink">
    <title>Hudle_ClearSet</title>
    <g id="Hudle_ClearSet" stroke="none" stroke-width="1" fill="none" fill-rule="evenodd">
        <g id="Group-3" transform="translate(125, 125) rotate(45) translate(-125, -125)translate(36, 36)" fill="#FFFFFF">
            <g id="Group-2" transform="translate(89, 89) rotate(90) translate(-89, -89)translate(59, -0)">
                <path d="M29.5146509,58.8886401 C48.9003865,58.8886401 59.0293019,48.783861 59.0293019,29.44432 C59.0293019,10.104779 48.9003865,5.35060716e-14 29.5146509,5.35060716e-14 C10.1289154,5.35060716e-14 -7.41873838e-14,10.104779 -7.41873838e-14,29.44432 C-7.41873838e-14,48.783861 10.1289154,58.8886401 29.5146509,58.8886401 Z" id="Oval"></path>
                <path d="M30.4853491,178 C49.8710846,178 60,167.895221 60,148.55568 C60,129.216139 49.8710846,119.11136 30.4853491,119.11136 C11.0996135,119.11136 0.970698131,129.216139 0.970698131,148.55568 C0.970698131,167.895221 11.0996135,178 30.4853491,178 Z" id="Oval-Copy-7"></path>
            </g>
            <g id="Group-2-Copy" transform="translate(59, 0)">
                <path d="M29.5146509,58.8886401 C48.9003865,58.8886401 59.0293019,48.783861 59.0293019,29.44432 C59.0293019,10.104779 48.9003865,-1.08819589e-13 29.5146509,-1.08819589e-13 C10.1289154,-1.08819589e-13 9.63658026e-14,10.104779 9.63658026e-14,29.44432 C9.63658026e-14,48.783861 10.1289154,58.8886401 29.5146509,58.8886401 Z" id="Oval"></path>
                <path d="M30.4853491,178 C49.8710846,178 60,167.895221 60,148.55568 C60,129.216139 49.8710846,119.11136 30.4853491,119.11136 C11.0996135,119.11136 0.970698131,129.216139 0.970698131,148.55568 C0.970698131,167.895221 11.0996135,178 30.4853491,178 Z" id="Oval-Copy-7"></path>
            </g>
            <circle id="Oval-Copy" cx="149.104076" cy="150.51829" r="17"></circle>
            <circle id="Oval-Copy-3" cx="149.104076" cy="30.3101372" r="17"></circle>
            <circle id="Oval-Copy-4" cx="28.8959236" cy="30.3101372" r="17"></circle>
            <circle id="Oval-Copy-5" cx="28.8959236" cy="150.51829" r="17"></circle>
        </g>
    </g>
</svg>