<svg width="169" height="39" viewBox="0 0 169 39" fill="none" xmlns="http://www.w3.org/2000/svg">
<path d="M143.217 38V0.473389H168.504V7.0149H151.151V15.9568H167.203V22.4983H151.151V31.4585H168.577V38H143.217Z" fill="white"/>
<path d="M113.941 38V0.473389H121.875V31.4585H137.963V38H113.941Z" fill="white"/>
<path d="M89.7034 38H76.4005V0.473389H89.8134C93.588 0.473389 96.8374 1.22465 99.5615 2.72719C102.286 4.2175 104.381 6.36136 105.846 9.15875C107.325 11.9561 108.064 15.3032 108.064 19.2001C108.064 23.1091 107.325 26.4684 105.846 29.278C104.381 32.0876 102.273 34.2437 99.5248 35.7462C96.7885 37.2488 93.5147 38 89.7034 38ZM84.3346 31.202H89.3736C91.719 31.202 93.6918 30.7867 95.2921 29.956C96.9046 29.1131 98.1139 27.8121 98.9202 26.0531C99.7386 24.2818 100.148 21.9975 100.148 19.2001C100.148 16.4271 99.7386 14.1611 98.9202 12.402C98.1139 10.643 96.9107 9.3481 95.3104 8.51743C93.7102 7.68676 91.7373 7.27143 89.3919 7.27143H84.3346V31.202Z" fill="white"/>
<path d="M61.9387 0.473389H69.8728V24.8437C69.8728 27.58 69.2192 29.9743 67.9121 32.0265C66.6173 34.0788 64.8032 35.679 62.47 36.8273C60.1368 37.9634 57.4189 38.5314 54.3161 38.5314C51.2011 38.5314 48.477 37.9634 46.1438 36.8273C43.8106 35.679 41.9965 34.0788 40.7017 32.0265C39.4068 29.9743 38.7594 27.58 38.7594 24.8437V0.473389H46.6935V24.1657C46.6935 25.595 47.005 26.8654 47.628 27.977C48.2632 29.0887 49.1549 29.9621 50.3032 30.5973C51.4515 31.2325 52.7891 31.5501 54.3161 31.5501C55.8552 31.5501 57.1929 31.2325 58.3289 30.5973C59.4772 29.9621 60.3628 29.0887 60.9858 27.977C61.6211 26.8654 61.9387 25.595 61.9387 24.1657V0.473389Z" fill="white"/>
<path d="M0.261597 38V0.473389H8.19569V15.9568H24.3021V0.473389H32.2179V38H24.3021V22.4983H8.19569V38H0.261597Z" fill="white"/>
</svg>
